<svg version="1.2" xmlns="http://www.w3.org/2000/svg" viewBox="0 0 192 84" width="192" height="84"><defs><linearGradient id="P" gradientUnits="userSpaceOnUse"/><linearGradient id="g1" x2="1" href="#P" gradientTransform="matrix(14.43,60.452,-73.97,17.657,37.582,20.278)"><stop offset=".47" stop-color="#ebd04a"/><stop offset="1" stop-color="#f4b92f"/></linearGradient><linearGradient id="g2" x2="1" href="#P" gradientTransform="matrix(14.431,60.452,-218.815,52.233,37.582,20.278)"><stop offset=".47" stop-color="#ebd04a"/><stop offset="1" stop-color="#f4b92f"/></linearGradient><linearGradient id="g3" x2="1" href="#P" gradientTransform="matrix(14.431,60.452,-189.604,45.26,37.582,20.278)"><stop offset=".47" stop-color="#ebd04a"/><stop offset="1" stop-color="#f4b92f"/></linearGradient><linearGradient id="g4" x2="1" href="#P" gradientTransform="matrix(14.431,60.452,-128.097,30.578,37.582,20.278)"><stop offset=".47" stop-color="#ebd04a"/><stop offset="1" stop-color="#f4b92f"/></linearGradient></defs><style>.a{fill:url(#g1)}.b{fill:#e49395}.c{fill:#fff}.d{fill:url(#g2)}.e{fill:url(#g3)}.f{fill:url(#g4)}.g{fill:none;stroke:#000;stroke-linecap:round;stroke-width:1.2}</style><path class="a" d="m75.7 67.1c-2.2 3.4-10.1 10.8-23.8 13.6-17.1 3.6-40.4 5.4-44.9-13.4-2.6-10.9 1.4-18.2 3.5-20.8 0-5.3 2.2-17.1 10.6-21.3 7.8-4 14.6-4.1 19.9-0.6q2.7 1.9 4.8 5c0 0.1 0 0.5 0.6 1 0.4 0.3 2.3 2 3.9 3.6 0.8 0.7 1.6 1.3 2.1 1.9 0.3 0.4 0.8 1.3 1.1 2 0.2 0.4 0.3 0.8 0.3 1-0.9-1.2-2.3-2.3-4.6-3-5.2-1.7-11.8-0.3-17.2 3.2-5.3 3.6-5.6 6.3-6.9 7.7-0.6 0.7-1.3 1.5-2.2 2.2 0.5 1.6 2.1 5.2 4.5 6.7 3.1 2 7.6 4.3 13.9 2.8 6.3-1.5 10.8-3.3 14.3-10 1 0.5 9.3 3.3 14.5 2.1 4.1-1 7-2.5 7.9-3.1 1.1 0.9 3.5 3.2 3.7 5.3-1.4 1.5-5.8 5-11.9 7.3-7.6 2.9-17.4 4.6-22.4 4.8-5 0.2-14.6-2.1-16.9-1.8-2.2 0.4-4.4 1.6-4.1 3.9 0.4 2.2 1.6 4.4 6.4 5.4 4.7 1 15.7 1.4 25.8-0.6 8.1-1.7 14.8-3.9 17.1-4.9z"/><path class="b" d="m81.7 53c0.7 0.1 2.1 0.6 2.4 2.1 0.4 1.5-1.3 3.1-2.2 3.7 0.8 1 1.6 3.5-1.1 5.4-2.7 1.9-4.5 2.7-5.1 2.9-2.3 1-9 3.2-17.1 4.9-10.1 2-21.1 1.6-25.8 0.6-4.8-1-6-3.2-6.4-5.4-0.3-2.3 1.9-3.5 4.1-3.9 2.3-0.3 11.9 2 16.9 1.8 5-0.2 14.8-1.9 22.4-4.8 6.1-2.3 10.5-5.8 11.9-7.3z"/><path class="c" d="m55.7 43.5c0.4 1.7 0.1 4.2-0.1 5.2-3.5 6.7-8 8.5-14.3 10-6.3 1.5-10.8-0.8-13.9-2.8-2.4-1.5-4-5.1-4.5-6.7 0.9-0.7 1.6-1.5 2.2-2.2 1.3-1.4 1.6-4.1 6.9-7.7 5.4-3.5 12-4.9 17.2-3.2 2.3 0.7 3.7 1.8 4.6 3 1.2 1.6 1.6 3.2 1.9 4.4z"/><path class="c" d="m83.4 36.9c1.2 5.3-3.1 9.4-5.4 10.8-0.9 0.6-3.8 2.1-7.9 3.1-5.2 1.2-13.5-1.6-14.5-2.1 0.2-1 0.5-3.5 0.1-5.2-0.3-1.2-0.7-2.8-1.9-4.4 0-0.2-0.1-0.6-0.3-1 1.7-2.2 6.2-6.9 10.8-8 5.8-1.4 9.9-3.4 17.1 2 0.8 1.3 1.5 2.9 2 4.8z"/><path class="d" d="m64.7 27.8c7-1.6 11.3-0.7 12.6-0.1 1 0.6 2.7 2 4.1 4.4-7.2-5.4-11.3-3.4-17.1-2-4.6 1.1-9.1 5.8-10.8 8-0.3-0.7-0.8-1.6-1.1-2 1.2-2.1 5.4-6.6 12.3-8.3z"/><path class="e" d="m66.5 23.4c2.2 0 7.5 0.9 10.8 4.3-1.3-0.6-5.6-1.5-12.6 0.1-6.9 1.7-11.1 6.2-12.3 8.3-0.5-0.6-1.3-1.2-2.1-1.9-1.6-1.6-3.5-3.3-3.9-3.6 1.8-1.5 6.8-4.8 12.2-6.1 5.4-1.3 7.5-1.3 7.9-1.1z"/><path class="f" d="m45.8 29.6q-2.1-3.1-4.8-5c0.8-1.8 4.1-5.8 10.5-7.4 7.9-1.9 14.3 3 15 6.2-0.4-0.2-2.5-0.2-7.9 1.1-5.4 1.3-10.4 4.6-12.2 6.1-0.6-0.5-0.6-0.9-0.6-1z"/><path fill-rule="evenodd" class="g" d="m75.7 67.1c-2.2 3.4-10.1 10.8-23.8 13.6-17.1 3.6-40.4 5.4-44.9-13.4-2.6-10.9 1.4-18.2 3.5-20.8m65.2 20.6c0.6-0.2 2.4-1 5.1-2.9 2.7-1.9 1.9-4.4 1.1-5.4m-6.2 8.3c-2.3 1-9 3.2-17.1 4.9-10.1 2-21.1 1.6-25.8 0.6-4.8-1-6-3.2-6.4-5.4-0.3-2.3 1.9-3.5 4.1-3.9 2.3-0.3 11.9 2 16.9 1.8 5-0.2 14.8-1.9 22.4-4.8 6.1-2.3 10.5-5.8 11.9-7.3m-71.2-6.5c0 1.7 0.4 4.4 0.6 5.5m-0.6-5.5c0-5.3 2.2-17.1 10.6-21.3 7.8-4 14.6-4.1 19.9-0.6m0 0q2.7 1.9 4.8 5c0 0.1 0 0.5 0.6 1m-5.4-6c0.8-1.8 4.1-5.8 10.5-7.4 7.9-1.9 14.3 3 15 6.2m0 0c2.2 0 7.5 0.9 10.8 4.3m-10.8-4.3c-0.4-0.2-2.5-0.2-7.9 1.1-5.4 1.3-10.4 4.6-12.2 6.1m30.9-2.9c-1.3-0.6-5.6-1.5-12.6 0.1-6.9 1.7-11.1 6.2-12.3 8.3m1.1 2c1.7-2.2 6.2-6.9 10.8-8 5.8-1.4 9.9-3.4 17.1 2m-3.4 15.6c2.3-1.4 6.6-5.5 5.4-10.8-0.5-1.9-1.2-3.5-2-4.8m-3.4 15.6c1.1 0.9 3.5 3.2 3.7 5.3m-3.7-5.3c-0.9 0.6-3.8 2.1-7.9 3.1-5.2 1.2-13.5-1.6-14.5-2.1m26.1 4.3c0.7 0.1 2.1 0.6 2.4 2.1 0.4 1.5-1.3 3.1-2.2 3.7m0 0c-2.2 1.7-9 5.7-19.2 8.1-12.8 3-21.1 2.9-25.6 2.1-3.5-0.7-5.5-1.5-6-1.9m24.5-18.4c0.2-1 0.5-3.5 0.1-5.2m-0.1 5.2c-3.5 6.7-8 8.5-14.3 10-6.3 1.5-10.8-0.8-13.9-2.8-2.4-1.5-4-5.1-4.5-6.7m32.8-5.7q0 0 0 0m0 0m-36.2 6.7c1.5 0 2.5-0.4 3.4-1m0 0c0.9-0.7 1.6-1.5 2.2-2.2 1.3-1.4 1.6-4.1 6.9-7.7 5.4-3.5 12-4.9 17.2-3.2 2.3 0.7 3.7 1.8 4.6 3m-1.4-3c0.3 0.4 0.8 1.3 1.1 2m-1.1-2c-0.5-0.6-1.3-1.2-2.1-1.9m3.5 4.9c0-0.2-0.1-0.6-0.3-1m0.3 1c1.2 1.6 1.6 3.2 1.9 4.4m21.6-15.8c1 0.6 2.7 2 4.1 4.4m-35-1.5c-1.2-0.6-4.5-1.7-8.6-1.6-5.2 0.1-10.8 1.3-16.1 7.5m24.7-5.9c0.4 0.3 2.3 2 3.9 3.6m0 0c-1.4-0.7-6.1-1.6-13 0-8.5 2-15.1 11.7-16.4 13.2"/><path fill-rule="evenodd" class="g" d="m39.6 23.7c-3.1-5.4-11.1-16-18.2-15.6"/><path fill-rule="evenodd" d="m22.2 9.7c1 0.2 2-0.2 2.1-0.8 0.1-0.7-0.7-1.3-1.7-1.5-1.1-0.2-2 0.2-2.1 0.8-0.2 0.7 0.6 1.3 1.7 1.5z"/><path fill-rule="evenodd" d="m70.5 47.1c-4.2 1-8.4-1.6-9.4-5.8-1-4.2 1.6-8.4 5.7-9.4 4.2-1 8.4 1.6 9.4 5.8 1 4.2-1.6 8.4-5.7 9.4zm-2.8-10.6c-0.4-1.6-1.9-2.5-3.5-2.2-1.6 0.4-2.5 2-2.1 3.5 0.3 1.6 1.9 2.6 3.5 2.2 1.5-0.4 2.5-1.9 2.1-3.5z"/><path fill-rule="evenodd" d="m40.6 54.9c-4.2 1-8.4-1.6-9.4-5.7-1-4.2 1.6-8.4 5.8-9.4 4.2-1 8.4 1.6 9.4 5.7 1 4.2-1.6 8.4-5.8 9.4zm-2.9-10.6c-0.3-1.5-1.9-2.5-3.4-2.1-1.5 0.3-2.5 1.9-2.1 3.4 0.4 1.6 1.9 2.5 3.4 2.1 1.6-0.3 2.5-1.9 2.1-3.4z"/><path fill-rule="evenodd" class="g" d="m41.2 24c0.3-3.9 1.9-12.3 6.6-15.1 4.6-2.8 7.6-3.1 8.6-2.8"/><path fill-rule="evenodd" d="m55.9 8c1.2 0 2.1-0.6 2-1.4 0-0.7-1-1.2-2.1-1.2-1.2 0.1-2.1 0.7-2.1 1.4 0 0.8 1 1.3 2.2 1.2z"/></svg>